<?xml version="1.0" encoding="UTF-8" standalone="no"?>
<svg
    xmlns="http://www.w3.org/2000/svg"
    viewBox="0 0 100 100">
    <path style="stroke:#00897B;stroke-opacity:0.2;stroke-width:.4" d="M 2.114362 60.499520 L -7.988022 64.096588M 0.718670 96.029554 L -11.288927 99.278897M 0.718670 -3.970446 L 5.077682 2.295605M 50.029251 26.001034 L 51.172563 28.805605M 40.227908 23.958154 L 50.029251 26.001034M 50.029251 26.001034 L 53.310832 18.066032M 41.825238 11.370623 L 38.271804 20.982544M 34.501168 7.327958 L 40.811516 9.472490M 51.172563 28.805605 L 46.908403 37.656583M 62.284763 31.866127 L 51.172563 28.805605M 27.054283 -3.214657 L 18.397672 1.514034M 26.985629 11.841808 L 34.501168 7.327958M 34.501168 7.327958 L 32.067270 -1.450951M 37.992885 86.878279 L 40.002106 93.111559M 46.908403 37.656583 L 36.006392 36.328365M 48.472305 40.480233 L 46.908403 37.656583M 35.722064 35.346616 L 40.227908 23.958154M 38.271804 20.982544 L 28.217072 20.659147M 40.227908 23.958154 L 38.271804 20.982544M 57.643352 3.669079 L 47.671281 -2.708476M 40.811516 9.472490 L 41.825238 11.370623M 41.825238 11.370623 L 51.542116 14.252366M 47.671281 -2.708476 L 40.811516 9.472490M 55.438279 84.169886 L 47.439164 96.646872M 58.096326 84.209061 L 63.184435 89.008831M 27.054283 96.785343 L 26.252417 87.193336M 28.217072 20.659147 L 26.985629 11.841808M 26.985629 11.841808 L 19.990739 8.145197M 24.023584 25.923294 L 28.217072 20.659147M 50.601754 79.842440 L 55.438279 84.169886M 55.438279 84.169886 L 58.096326 84.209061M 58.096326 84.209061 L 65.438384 74.758126M 62.795931 -0.998793 L 57.646863 3.668650M 72.848662 1.248435 L 62.795931 -0.998793M 66.116975 25.966197 L 62.284763 31.866127M 62.284763 31.866127 L 64.034169 39.500067M 63.184435 89.008831 L 62.795931 99.001207M 73.020799 88.506375 L 63.184435 89.008831M 65.438384 74.758126 L 67.983123 74.524350M 57.831459 64.604147 L 65.438384 74.758126M 41.159316 80.986032 L 50.601754 79.842440M 50.601754 79.842440 L 50.467816 68.470272M 36.006392 36.328365 L 35.722064 35.346616M 32.142633 42.928830 L 36.006392 36.328365M 35.722064 35.346616 L 24.023584 25.923294M 24.023584 25.923294 L 23.712764 26.023175M 38.049281 69.763989 L 45.282793 66.251570M 73.704434 78.784903 L 73.020799 88.506375M 73.020799 88.506375 L 75.607373 90.595259M 67.983123 74.524350 L 73.704434 78.784903M 74.844332 64.324614 L 67.983123 74.524350M 73.704434 78.784903 L 83.004626 76.309875M 43.717598 52.762600 L 42.683989 53.302352M 50.467816 68.470272 L 57.831459 64.604147M 57.831459 64.604147 L 59.483284 60.495741M 45.282793 66.251570 L 50.467816 68.470272M 42.354229 54.033701 L 45.282793 66.251570M 57.646863 3.668650 L 57.643352 3.669079M 53.310832 18.066032 L 64.960458 19.069718M 51.542116 14.252366 L 53.310832 18.066032M 57.643352 3.669079 L 51.542116 14.252366M 68.135518 14.228442 L 57.646863 3.668650M 64.034169 39.500067 L 63.313232 41.546925M 78.369590 36.119621 L 64.034169 39.500067M 70.037869 57.718973 L 74.844332 64.324614M 74.844332 64.324614 L 79.964566 65.618603M 78.343723 49.218530 L 72.139780 51.861611M 63.313232 41.546925 L 59.224578 43.685015M 59.483284 60.495741 L 70.037869 57.718973M 55.542447 54.339126 L 59.483284 60.495741M 72.139780 51.861611 L 63.313232 41.546925M 70.037869 57.718973 L 72.139780 51.861611M 30.957875 63.582049 L 30.935396 59.790355M 26.252417 87.193336 L 28.168006 85.404518M 19.400605 86.401631 L 26.252417 87.193336M 21.734675 71.785934 L 20.715050 71.720536M 76.719398 -2.269513 L 72.848662 1.248435M 87.141405 1.406493 L 76.719398 -2.269513M 72.848662 1.248435 L 72.425717 12.566793M 83.004626 76.309875 L 84.845348 77.469747M 79.964566 65.618603 L 83.004626 76.309875M 86.904550 61.071022 L 79.964566 65.618603M 23.712764 26.023175 L 12.093823 18.328185M 17.568180 35.895322 L 23.712764 26.023175M 5.077682 2.295605 L 4.423639 4.055995M 18.397672 1.514034 L 15.777684 -0.113271M 15.777684 -0.113271 L 5.077682 2.295605M 19.990739 8.145197 L 18.397672 1.514034M 11.777906 17.306755 L 19.990739 8.145197M -4.000245 27.164670 L 4.050382 30.555047M 12.093823 18.328185 L 11.777906 17.306755M 6.274422 29.916247 L 12.093823 18.328185M 11.777906 17.306755 L 8.804020 15.696617M 81.365625 39.244664 L 78.343723 49.218530M 78.343723 49.218530 L 86.893616 54.533819M 75.607373 90.595259 L 76.719398 97.730487M 86.932318 84.974111 L 75.607373 90.595259M -0.702819 85.536822 L 1.872790 87.152988M 6.225073 69.689926 L -2.412760 74.295573M 88.376695 86.025036 L 88.711073 99.278897M 30.424719 43.542541 L 17.886913 38.056247M 16.183178 55.385883 L 24.972600 54.441262M 2.054393 44.149728 L -3.458313 46.570731M -3.791959 47.616532 L 2.114362 60.499520M 2.114362 60.499520 L 5.048385 61.830544M 15.272444 54.981615 L 12.362208 46.599732M 64.960458 19.069718 L 66.116975 25.966197M 72.425717 12.566793 L 68.135518 14.228442M 66.116975 25.966197 L 77.653072 28.411846M 68.135518 14.228442 L 64.960458 19.069718M 81.094701 15.576969 L 72.425717 12.566793M 28.168006 85.404518 L 37.992885 86.878279M 37.992885 86.878279 L 41.159316 80.986032M 41.159316 80.986032 L 36.881566 74.648555M 28.012737 77.089776 L 28.168006 85.404518M 42.683989 53.302352 L 32.142633 42.928830M 32.142633 42.928830 L 30.424719 43.542541M 30.935396 59.790355 L 42.354229 54.033701M 42.354229 54.033701 L 42.683989 53.302352M 24.972600 54.441262 L 30.935396 59.790355M 30.424719 43.542541 L 24.972600 54.441262M 88.711073 -0.721103 L 87.141405 1.406493M 87.141405 1.406493 L 88.542194 9.343207M 88.542194 9.343207 L 81.094701 15.576969M 81.094701 15.576969 L 82.008216 22.836969M 92.756114 10.857412 L 88.542194 9.343207M 4.050382 30.555047 L 2.054393 44.149728M 17.886913 38.056247 L 17.568180 35.895322M 17.568180 35.895322 L 6.274422 29.916247M 6.274422 29.916247 L 4.050382 30.555047M 12.362208 46.599732 L 17.886913 38.056247M 2.054393 44.149728 L 12.362208 46.599732M 89.492842 38.650806 L 96.541687 46.570731M 95.999755 27.164670 L 93.731116 28.169408M 14.500378 91.944551 L 19.400605 86.401631M 19.400605 86.401631 L 14.207764 75.444273M 12.910162 75.428659 L 4.493651 86.356400M 86.893616 54.533819 L 86.904550 61.071022M 86.904550 61.071022 L 92.011978 64.096588M 96.208041 47.616532 L 86.893616 54.533819M 1.872790 87.152988 L 0.718670 96.029554M 0.718670 96.029554 L 5.077682 102.295605M 15.777684 99.886729 L 14.500378 91.944551M 4.493651 86.356400 L 1.872790 87.152988M 14.500378 91.944551 L 4.493651 86.356400M 84.845348 77.469747 L 86.932318 84.974111M 93.153011 72.420817 L 84.845348 77.469747M 86.932318 84.974111 L 88.376695 86.025036M 88.376695 86.025036 L 99.297181 85.536822M 77.653072 28.411846 L 78.369590 36.119621M 78.369590 36.119621 L 81.365625 39.244664M 81.365625 39.244664 L 89.492842 38.650806M 82.008216 22.836969 L 77.653072 28.411846M 93.731116 28.169408 L 82.008216 22.836969M 89.492842 38.650806 L 93.731116 28.169408M 5.048385 61.830544 L 6.225073 69.689926M 20.715050 71.720536 L 16.183178 55.385883M 14.207764 75.444273 L 20.715050 71.720536M 6.225073 69.689926 L 12.910162 75.428659M 16.183178 55.385883 L 15.272444 54.981615M 15.272444 54.981615 L 5.048385 61.830544M 12.910162 75.428659 L 14.207764 75.444273M 59.224578 43.685015 L 48.472305 40.480233M 48.472305 40.480233 L 43.717598 52.762600M 43.717598 52.762600 L 55.542447 54.339126M 55.542447 54.339126 L 59.224578 43.685015M 92.011978 64.096588 L 93.153011 72.420817M 102.114362 60.499520 L 92.011978 64.096588M 93.153011 72.420817 L 97.587240 74.295573M 4.423639 4.055995 L -7.243886 10.857412M 8.804020 15.696617 L 4.423639 4.055995M -2.366198 17.828291 L 8.804020 15.696617M 36.881566 74.648555 L 38.049281 69.763989M 38.049281 69.763989 L 30.957875 63.582049M 30.957875 63.582049 L 21.734675 71.785934M 21.734675 71.785934 L 28.012737 77.089776M 28.012737 77.089776 L 36.881566 74.648555M 40.002106 93.111559 L 32.067270 98.549049M 47.439164 96.646872 L 40.002106 93.111559M 47.671281 97.291524 L 47.439164 96.646872M 32.067270 98.549049 L 27.054283 96.785343M 27.054283 96.785343 L 18.397672 101.514034M 34.501168 107.327958 L 32.067270 98.549049M 57.643352 103.669079 L 47.671281 97.291524M 47.671281 97.291524 L 40.811516 109.472490M 62.795931 99.001207 L 57.646863 103.668650M 72.848662 101.248435 L 62.795931 99.001207M 76.719398 97.730487 L 72.848662 101.248435M 87.141405 101.406493 L 76.719398 97.730487M 18.397672 101.514034 L 15.777684 99.886729M 15.777684 99.886729 L 5.077682 102.295605M 88.711073 99.278897 L 87.141405 101.406493M 100.718670 96.029554 L 88.711073 99.278897M 97.633802 17.828291 L 95.999755 27.164670M 95.999755 27.164670 L 104.050382 30.555047M 99.297181 85.536822 L 101.872790 87.152988M 97.587240 74.295573 L 99.297181 85.536822M 106.225073 69.689926 L 97.587240 74.295573M 96.541687 46.570731 L 96.208041 47.616532M 102.054393 44.149728 L 96.541687 46.570731M 96.208041 47.616532 L 102.114362 60.499520M 104.423639 4.055995 L 92.756114 10.857412M 92.756114 10.857412 L 97.633802 17.828291M 97.633802 17.828291 L 108.804020 15.696617Z" />
</svg>