<svg version="1" xmlns="http://www.w3.org/2000/svg" width="512" height="512" viewBox="0 0 384.000000 384.000000"><path d="M29 1.4C14.5 5.5 4.2 16.3 1.1 30.8c-1.6 7.5-1.6 314.9 0 322.4C4.4 368.7 16 380 31.5 383c4.4.8 48.9 1 164.6.8l158.5-.3 7.6-3.8c8.9-4.4 13.6-9.2 18.2-18.7l3.1-6.5V29.4l-3.8-7.6c-4.4-8.9-9.2-13.6-18.7-18.2L354.5.5 194 .3C67.5.2 32.5.4 29 1.4zM180 98c0 4.9-1.2 5.7-13.5 9.6-4.9 1.5-9.3 3.3-9.7 3.8-.4.6-.8 19.2-.8 41.4 0 35.7.2 40.3 1.6 40.9 1.5.6 15.2-2.2 17-3.5 1-.7 3.9-4.6 9.6-12.7 1.9-2.8 13.2-18.6 25.1-35.3 12-16.6 21.7-30.7 21.7-31.1 0-.5-2.4-1.6-5.2-2.5-2.9-.9-7.7-2.6-10.5-3.8-5.3-2-5.3-2.1-5.3-6.4V94h68v4.4c0 4.3 0 4.4-5.2 6.4-2.9 1.2-8.2 2.9-11.8 4l-6.5 1.8-19 25.1c-10.4 13.8-24.2 32-30.6 40.4l-11.7 15.4 2.1 3c6.8 9.8 50.7 63.4 71.5 87.4 7.9 9 10.1 11 16.9 14.5 7.5 3.9 7.8 4.2 7.8 7.6v3.5l-19.5.2-19.5.3-5.5-4.1c-9.7-7.3-39.8-46.1-70-90.2l-5.2-7.7H156v41.4c0 22.8.3 42.1.6 43 .3.8 2.2 1.8 4.2 2.2 5.6.9 15.5 4.5 17.5 6.2 1.2 1.1 1.7 2.7 1.5 5.1l-.3 3.6-38.7.3-38.8.2v-4.5c0-4.2.2-4.6 3.7-6 2.1-.9 7.6-2.6 12.3-3.8l8.5-2.3V110.7l-8.5-2.2c-4.7-1.2-10.2-2.9-12.2-3.8-3.6-1.5-3.8-1.8-3.8-6.1V94h78v4z"/></svg>